# xmcd
#
# Track frame offsets:
#	150
#	10646
#	22099
#	33148
#	45607
#	56385
#	69082
#	82800
#	97028
#	109102
#	120317
#	131057
#
# Disc length: 1908 seconds
#
# Revision: 0
# Processed by: cddbd v1.5.2PL0 Copyright (c) Steve Scherf et al.
# Submitted via: EasyCDDAExtractor 11.5.0.1
#
DISCID=8807720c
DTITLE=Slim Whitman - Legends In Music CD1-2
DYEAR=2007
DGENRE=Country
TTITLE0=Rose Marie
TTITLE1=The Cattle Call
TTITLE2=Keep It A Secret
TTITLE3=An Amateur In Love
TTITLE4=Why
TTITLE5=Darlin Don't Cry
TTITLE6=Roll On Silver Moon
TTITLE7=Indian Love Call
TTITLE8=We Stood At The Altar
TTITLE9=Singing Halls
TTITLE10=Beautiful Dreamer
TTITLE11=My Heart Is Broken In Three
EXTD=
EXTT0=
EXTT1=
EXTT2=
EXTT3=
EXTT4=
EXTT5=
EXTT6=
EXTT7=
EXTT8=
EXTT9=
EXTT10=
EXTT11=
PLAYORDER=
